<svg width="63" height="63" viewBox="0 0 63 63" fill="none" xmlns="http://www.w3.org/2000/svg">
<path d="M12.0094 12.0094C12.7478 11.2712 13.7491 10.8566 14.7932 10.8566C15.8373 10.8566 16.8386 11.2712 17.577 12.0094L31.5 25.9324L45.423 12.0094C46.1656 11.2922 47.1602 10.8953 48.1926 10.9043C49.225 10.9132 50.2126 11.3273 50.9427 12.0574C51.6727 12.7874 52.0868 13.775 52.0958 14.8074C52.1048 15.8398 51.7079 16.8344 50.9906 17.577L37.0676 31.5L50.9906 45.423C51.7079 46.1657 52.1048 47.1603 52.0958 48.1927C52.0868 49.2251 51.6727 50.2127 50.9427 50.9427C50.2126 51.6727 49.225 52.0868 48.1926 52.0958C47.1602 52.1048 46.1656 51.7079 45.423 50.9907L31.5 37.0677L17.577 50.9907C16.8344 51.7079 15.8398 52.1048 14.8074 52.0958C13.775 52.0868 12.7874 51.6727 12.0573 50.9427C11.3273 50.2127 10.9132 49.2251 10.9042 48.1927C10.8953 47.1603 11.2921 46.1657 12.0094 45.423L25.9324 31.5L12.0094 17.577C11.2712 16.8386 10.8565 15.8373 10.8565 14.7932C10.8565 13.7491 11.2712 12.7478 12.0094 12.0094Z" fill="#A9EEED"/>
</svg>
