<svg width="50" height="50" viewBox="0 0 50 50" fill="none" xmlns="http://www.w3.org/2000/svg">
<path d="M43.75 10.7917V35.4167C43.7496 37.2511 43.1439 39.034 42.027 40.4891C40.91 41.9442 39.3441 42.9901 37.5721 43.4646C35.8002 43.939 33.9212 43.8156 32.2266 43.1134C30.5319 42.4111 29.1163 41.1694 28.1993 39.5807C27.2823 37.992 26.9151 36.1451 27.1547 34.3264C27.3943 32.5077 28.2273 30.819 29.5244 29.5219C30.8216 28.2249 32.5105 27.3921 34.3292 27.1527C36.1479 26.9134 37.9947 27.2807 39.5833 28.1979V19.1271L18.75 22.5979V37.5C18.75 37.625 18.7396 37.7438 18.7188 37.8625C18.8683 39.4646 18.4838 41.0711 17.6251 42.4318C16.7664 43.7925 15.4818 44.831 13.9713 45.3854C12.4608 45.9399 10.8094 45.9791 9.27431 45.4971C7.7392 45.0151 6.40663 44.0389 5.48421 42.7206C4.56178 41.4022 4.10132 39.8158 4.17455 38.2085C4.24778 36.6011 4.8506 35.0631 5.88908 33.8341C6.92756 32.6051 8.34339 31.7541 9.91597 31.4137C11.4885 31.0733 13.1296 31.2626 14.5833 31.9521V14.2646C14.5832 13.2783 14.933 12.3239 15.5705 11.5712C16.2079 10.8186 17.0917 10.3164 18.0646 10.1542L38.8979 6.68335C39.4947 6.58382 40.106 6.61546 40.6894 6.77606C41.2727 6.93667 41.8141 7.22239 42.2758 7.61336C42.7376 8.00433 43.1086 8.49117 43.3632 9.04004C43.6178 9.58891 43.7498 10.1866 43.75 10.7917ZM11.4583 35.4167C10.6295 35.4167 9.83468 35.7459 9.24863 36.332C8.66258 36.918 8.33334 37.7129 8.33334 38.5417C8.33334 39.3705 8.66258 40.1653 9.24863 40.7514C9.83468 41.3374 10.6295 41.6667 11.4583 41.6667C12.2871 41.6667 13.082 41.3374 13.668 40.7514C14.2541 40.1653 14.5833 39.3705 14.5833 38.5417C14.5833 37.7129 14.2541 36.918 13.668 36.332C13.082 35.7459 12.2871 35.4167 11.4583 35.4167ZM35.4167 31.25C34.3116 31.25 33.2518 31.689 32.4704 32.4704C31.689 33.2518 31.25 34.3116 31.25 35.4167C31.25 36.5218 31.689 37.5816 32.4704 38.363C33.2518 39.1444 34.3116 39.5834 35.4167 39.5834C36.5217 39.5834 37.5815 39.1444 38.363 38.363C39.1444 37.5816 39.5833 36.5218 39.5833 35.4167C39.5833 34.3116 39.1444 33.2518 38.363 32.4704C37.5815 31.689 36.5217 31.25 35.4167 31.25ZM39.5833 10.7917L18.75 14.2646V18.375L39.5833 14.9021V10.7917Z" fill="#0FC2C0"/>
</svg>
