<svg width="50" height="50" viewBox="0 0 50 50" fill="none" xmlns="http://www.w3.org/2000/svg">
<path d="M31.25 16.6666C32.5437 17.6369 33.5937 18.8951 34.317 20.3415C35.0402 21.7879 35.4167 23.3828 35.4167 25C35.4167 26.6171 35.0402 28.212 34.317 29.6584C33.5937 31.1048 32.5437 32.363 31.25 33.3333M36.875 10.4166C39.0499 12.1742 40.8042 14.3961 42.0093 16.9194C43.2144 19.4427 43.8399 22.2036 43.8399 25C43.8399 27.7963 43.2144 30.5572 42.0093 33.0805C40.8042 35.6039 39.0499 37.8257 36.875 39.5833M12.5 31.25H8.33333C7.7808 31.25 7.25089 31.0305 6.86019 30.6398C6.46949 30.2491 6.25 29.7192 6.25 29.1666V20.8333C6.25 20.2808 6.46949 19.7509 6.86019 19.3602C7.25089 18.9695 7.7808 18.75 8.33333 18.75H12.5L19.7917 9.37496C19.9738 9.02128 20.2764 8.74439 20.6448 8.59432C21.0132 8.44426 21.4231 8.43092 21.8005 8.55672C22.1779 8.68252 22.4979 8.93915 22.7026 9.28026C22.9073 9.62136 22.9832 10.0244 22.9167 10.4166V39.5833C22.9832 39.9755 22.9073 40.3786 22.7026 40.7197C22.4979 41.0608 22.1779 41.3174 21.8005 41.4432C21.4231 41.569 21.0132 41.5557 20.6448 41.4056C20.2764 41.2555 19.9738 40.9786 19.7917 40.625L12.5 31.25Z" stroke="#0FC2C0" stroke-width="5" stroke-linecap="round" stroke-linejoin="round"/>
</svg>
