<svg width="915" height="907" viewBox="0 0 915 907" fill="none" xmlns="http://www.w3.org/2000/svg">
<rect x="307" y="602" width="300" height="300" stroke="#023535" stroke-width="10"/>
<rect x="607" y="305" width="300" height="300" stroke="#023535" stroke-width="10"/>
<rect x="7" y="305" width="300" height="300" stroke="#023535" stroke-width="10"/>
<rect x="307" y="5" width="300" height="300" stroke="#023535" stroke-width="10"/>
<line x1="8" y1="450" x2="907" y2="450" stroke="#023535" stroke-width="10"/>
<line x1="459" y1="903.001" x2="459" y2="6" stroke="#023535" stroke-width="10"/>
<line x1="154.5" y1="602.021" x2="154.5" y2="307.979" stroke="#023535" stroke-width="10"/>
<line x1="752" y1="599.042" x2="752" y2="305" stroke="#023535" stroke-width="10"/>
<line x1="307" y1="150" x2="607" y2="150" stroke="#023535" stroke-width="10"/>
<line x1="308" y1="750" x2="608" y2="750" stroke="#023535" stroke-width="10"/>
<line x1="303.482" y1="898.447" x2="903.482" y2="304.447" stroke="#023535" stroke-width="10"/>
<line x1="4.48228" y1="598.447" x2="604.482" y2="4.44674" stroke="#023535" stroke-width="10"/>
<line x1="310.527" y1="4.45575" x2="910.527" y2="601.5" stroke="#023535" stroke-width="10"/>
<line x1="10.5268" y1="304.456" x2="610.527" y2="901.5" stroke="#023535" stroke-width="10"/>
<line x1="311.506" y1="304.435" x2="610.506" y2="598.435" stroke="#023535" stroke-width="10"/>
<line x1="610.506" y1="308.565" x2="311.506" y2="602.565" stroke="#023535" stroke-width="10"/>
</svg>
