<svg width="610" height="610" viewBox="0 0 610 610" fill="none" xmlns="http://www.w3.org/2000/svg">
<rect x="202" y="5" width="6" height="600" fill="#023535"/>
<rect x="2" y="202" width="6" height="206" fill="#023535"/>
<rect x="602" y="202" width="6" height="206" fill="#023535"/>
<rect x="202" y="8" width="6" height="206" transform="rotate(-90 202 8)" fill="#023535"/>
<rect x="202" y="608" width="6" height="206" transform="rotate(-90 202 608)" fill="#023535"/>
<rect x="502" y="205" width="6" height="200" fill="#023535"/>
<rect x="102" y="205" width="6" height="200" fill="#023535"/>
<rect x="402" y="5" width="6" height="600" fill="#023535"/>
<rect x="302" y="5" width="6" height="600" fill="#023535"/>
<rect x="5" y="208" width="6" height="600" transform="rotate(-90 5 208)" fill="#023535"/>
<rect x="205" y="508" width="6" height="200" transform="rotate(-90 205 508)" fill="#023535"/>
<rect x="205" y="108" width="6" height="200" transform="rotate(-90 205 108)" fill="#023535"/>
<rect x="401.436" y="4.56348" width="5.65683" height="560.799" transform="rotate(45 401.436 4.56348)" fill="#023535"/>
<rect x="402.754" y="203.246" width="5.6569" height="279.248" transform="rotate(45 402.754 203.246)" fill="#023535"/>
<rect x="204.872" y="208.872" width="5.65685" height="278.229" transform="rotate(-45 204.872 208.872)" fill="#023535"/>
<rect x="4.5" y="208.5" width="5.65685" height="561.049" transform="rotate(-45 4.5 208.5)" fill="#023535"/>
<rect x="205.311" y="9.31091" width="5.65685" height="559.564" transform="rotate(-45 205.311 9.31091)" fill="#023535"/>
<rect x="601.258" y="204.742" width="5.65685" height="561.1" transform="rotate(45 601.258 204.742)" fill="#023535"/>
<rect x="5" y="408" width="6" height="600" transform="rotate(-90 5 408)" fill="#023535"/>
<rect x="5" y="308" width="6" height="600" transform="rotate(-90 5 308)" fill="#023535"/>
</svg>
